PathFileType	4	(X/Y/Z)	./resultDataOpenSim/trcMotMarkerGrf/sub10/qtm-14-07.trc
DataRate	CameraRate	NumFrames	NumMarkers	Units	OrigDataRate	OrigDataStartFrame	OrigNumFrames
250.000000	250.000000	10	24	m	250.000000	192	511
Frame#	Time	L.Toe.Tip			R.Toe.Tip			L.Ankle.Lat			R.Ankle.Lat			L.Ankle.Med			R.Ankle.Med			L.Heel			R.Heel			L.Knee.Lat			R.Knee.Lat			L.Knee.Med			R.Knee.Med			L.Thigh.Upper			R.Thigh.Upper			L.ASIS			R.ASIS			V.Sacral			L.Acromium			R.Acromium			C7			L.Elbow			R.Elbow			L.Wrist.Lat			R.Wrist.Lat
		X1	Y1	Z1	X2	Y2	Z2	X3	Y3	Z3	X4	Y4	Z4	X5	Y5	Z5	X6	Y6	Z6	X7	Y7	Z7	X8	Y8	Z8	X9	Y9	Z9	X10	Y10	Z10	X11	Y11	Z11	X12	Y12	Z12	X13	Y13	Z13	X14	Y14	Z14	X15	Y15	Z15	X16	Y16	Z16	X17	Y17	Z17	X18	Y18	Z18	X19	Y19	Z19	X20	Y20	Z20	X21	Y21	Z21	X22	Y22	Z22	X23	Y23	Z23	X24	Y24	Z24

192	0.764	-0.02146524	-0.032236402	-0.11600552	-0.68482758	0.067249624	0.021810883	-0.15361326	-0.0053456668	-0.15504729	-0.70372357	0.21251469	0.050508781	-0.15012432	0.017182324	-0.070141829	-0.65822908	0.18781351	-0.019642897	-0.22245812	-0.036462044	-0.118535	-0.73275041	0.24268339	-0.0082055618	-0.096811155	0.38233094	-0.17498069	-0.36555752	0.36659775	0.11692982	-0.1121947	0.3607505	-0.053642662	-0.29587986	0.32566808	0.0033901694	-0.1929849	0.75264477	-0.24520992	-0.33115648	0.76320898	0.11832952	-0.17823071	0.85661168	-0.15732682	-0.2319926	0.85623265	0.065542355	-0.3953193	0.86787029	-0.11193812	-0.31127431	1.3205741	-0.23631886	-0.36283346	1.3156437	0.086948222	-0.41629496	1.3324221	-0.091481088	-0.44411242	1.0087753	-0.27147247	-0.34480281	0.95661516	0.15890629	-0.38235982	0.78510638	-0.34105676	-0.10297161	0.92102931	0.20695537
193	0.768	-0.020868674	-0.032412315	-0.11622283	-0.67400412	0.071828288	0.025066752	-0.15272062	-0.0051265703	-0.15491365	-0.69067379	0.21818109	0.051386977	-0.14887487	0.017468075	-0.069941237	-0.6463109	0.19227864	-0.019052385	-0.22185322	-0.03553581	-0.11800558	-0.72007534	0.2476604	-0.0079252418	-0.087544109	0.38253011	-0.17437834	-0.35209385	0.36429454	0.11872151	-0.10390749	0.36204426	-0.053177424	-0.2814325	0.32409941	0.004648898	-0.188964	0.75181996	-0.24681216	-0.32383752	0.76027315	0.11852295	-0.17310025	0.8543561	-0.15797529	-0.2258172	0.85415886	0.064013019	-0.38991364	0.86604112	-0.11248301	-0.3036912	1.3189278	-0.23700115	-0.35642256	1.3142559	0.086521761	-0.40905822	1.3314614	-0.092373503	-0.43577428	1.0069262	-0.2733561	-0.34024783	0.95526644	0.15859244	-0.37414058	0.78348101	-0.34344542	-0.099632407	0.91843104	0.21008932
194	0.772	-0.020397467	-0.032592829	-0.11646934	-0.66240109	0.076556192	0.02873691	-0.15197919	-0.0050197567	-0.15489566	-0.67756975	0.22367674	0.052071752	-0.14782697	0.017643297	-0.069813576	-0.63403943	0.19663902	-0.018449922	-0.22142321	-0.03483424	-0.11782285	-0.70720115	0.25249754	-0.0077233638	-0.078832824	0.38229279	-0.17393371	-0.33845703	0.36217349	0.1201754	-0.095475858	0.3628001	-0.052929938	-0.26711379	0.32319408	0.0057202395	-0.18508971	0.75069599	-0.24835284	-0.31639506	0.75719709	0.11866842	-0.16794287	0.85220748	-0.15871749	-0.21992955	0.85207733	0.062625972	-0.38457602	0.86415433	-0.11228687	-0.29609931	1.3173093	-0.23752874	-0.34987882	1.3128815	0.08606985	-0.40157759	1.3307307	-0.093070997	-0.42738871	1.0050356	-0.27524758	-0.33580373	0.95401738	0.15838834	-0.36578299	0.78193828	-0.34588507	-0.096430903	0.91586515	0.21343514
195	0.776	-0.020007758	-0.032758217	-0.11670454	-0.65008241	0.081429162	0.032770634	-0.15132822	-0.0049655813	-0.15493524	-0.66451338	0.22886466	0.052530608	-0.14690917	0.017700173	-0.069697994	-0.62140842	0.20076622	-0.017769767	-0.22109689	-0.034292039	-0.11784511	-0.69404307	0.25720553	-0.0076194373	-0.070838404	0.38165068	-0.17367779	-0.32463838	0.36027369	0.1213808	-0.086993254	0.36292095	-0.052946926	-0.25293632	0.32275376	0.0066532762	-0.18134398	0.74931556	-0.24977252	-0.30883277	0.75403024	0.11873613	-0.16277613	0.85017475	-0.15959009	-0.21432458	0.84999413	0.061411686	-0.37931801	0.86225342	-0.11136727	-0.28848241	1.315713	-0.23791046	-0.34324156	1.3115003	0.085568571	-0.39391397	1.3300973	-0.093723419	-0.41895977	1.0030963	-0.27704805	-0.33148707	0.95284059	0.15830006	-0.35724528	0.78048378	-0.3484147	-0.093358262	0.91335253	0.21700131
196	0.78	-0.019670346	-0.032893475	-0.11689213	-0.63717515	0.086374586	0.03706243	-0.1507202	-0.0049392756	-0.15497448	-0.6516044	0.23367546	0.052704331	-0.14607997	0.017642421	-0.069549315	-0.60840967	0.20463386	-0.017052524	-0.22080182	-0.033844951	-0.11796018	-0.68055625	0.26178752	-0.0076150296	-0.063665135	0.38065668	-0.17364893	-0.31057159	0.35860135	0.12243432	-0.078623085	0.36245125	-0.053210033	-0.23890953	0.32261495	0.0074634609	-0.17770829	0.74773333	-0.25104405	-0.30135179	0.75091227	0.11877941	-0.15764152	0.84827266	-0.16060637	-0.20896086	0.84794767	0.060356516	-0.37429361	0.86036023	-0.10998935	-0.28085378	1.3141303	-0.23817302	-0.33657062	1.3101149	0.085044786	-0.38618845	1.3294458	-0.094432989	-0.4104691	1.0011557	-0.27870294	-0.32729065	0.9517104	0.15834449	-0.34850697	0.77911976	-0.35105941	-0.090400118	0.91091424	0.22078967
197	0.784	-0.019378485	-0.033000651	-0.11703215	-0.62383533	0.091290912	0.041473794	-0.15014213	-0.0049544484	-0.15498132	-0.63882264	0.23812748	0.052604182	-0.14536434	0.017505791	-0.069373326	-0.59501092	0.20828942	-0.016389902	-0.22052421	-0.033467282	-0.11809752	-0.66673469	0.26621361	-0.007733201	-0.057314136	0.37935445	-0.17383226	-0.29619252	0.35713886	0.12343924	-0.070584306	0.36150892	-0.053669256	-0.22502352	0.32264758	0.0081499789	-0.17415982	0.74599732	-0.2521625	-0.29411704	0.74802658	0.11874973	-0.15258036	0.84650615	-0.16175677	-0.20377657	0.84595947	0.059427197	-0.36958273	0.85840406	-0.10855671	-0.2732366	1.3125476	-0.23835169	-0.32987538	1.3087373	0.084535592	-0.37850161	1.3287078	-0.095175447	-0.40189558	0.99930185	-0.28024787	-0.32322214	0.95062268	0.15857212	-0.3396226	0.77783275	-0.35379232	-0.087552108	0.90857136	0.22480721
198	0.788	-0.019134312	-0.033091579	-0.1171443	-0.61017318	0.096113271	0.045868463	-0.14959982	-0.0050437853	-0.15494173	-0.62586826	0.24236662	0.052403221	-0.14479003	0.017339907	-0.069190771	-0.58117691	0.21178084	-0.015817016	-0.22031297	-0.033147423	-0.11818455	-0.65261095	0.27042042	-0.007994544	-0.051666212	0.37778468	-0.17414952	-0.28150453	0.35587296	0.12449712	-0.063024052	0.36018742	-0.054264975	-0.21124908	0.32274978	0.0087094969	-0.17066941	0.74413088	-0.25312368	-0.28705298	0.74545326	0.11845186	-0.14762099	0.84485863	-0.16301757	-0.19871579	0.84400684	0.058600649	-0.36504093	0.85625655	-0.10733254	-0.26563819	1.3109472	-0.23848148	-0.32309705	1.3073621	0.084037725	-0.37090215	1.3278597	-0.095848955	-0.39324702	0.99757638	-0.28176083	-0.31927318	0.94957297	0.15899544	-0.33068911	0.77658797	-0.35656294	-0.084827088	0.90633719	0.22906568
199	0.792	-0.018940943	-0.033179762	-0.11723998	-0.59622835	0.10084001	0.050137207	-0.14911322	-0.0052149322	-0.15486067	-0.61232488	0.24659289	0.052345767	-0.14433624	0.017166029	-0.068996512	-0.56695824	0.21510551	-0.015287932	-0.22022424	-0.032868008	-0.11815964	-0.63825747	0.27434346	-0.0083361765	-0.046537824	0.37600585	-0.17450838	-0.26658109	0.35481201	0.12568488	-0.055902584	0.35854773	-0.054880376	-0.19754204	0.32285661	0.0091558948	-0.16719583	0.74213132	-0.2539048	-0.28004292	0.74309375	0.11785369	-0.1427806	0.84330371	-0.16435336	-0.19374988	0.84204965	0.057874083	-0.36050736	0.85387517	-0.10626019	-0.25803585	1.3093182	-0.23858733	-0.31617593	1.3059702	0.083521682	-0.36340626	1.3268945	-0.096389428	-0.38459016	0.9958786	-0.28327103	-0.31535337	0.94852942	0.15951842	-0.3217329	0.77535447	-0.35937673	-0.082238137	0.90421244	0.23356418
200	0.796	-0.018800005	-0.033272652	-0.11731434	-0.5819998	0.10549913	0.054206118	-0.14871013	-0.0054279464	-0.15475658	-0.59797991	0.25092601	0.05259589	-0.14394919	0.016961604	-0.068763733	-0.55249817	0.21822429	-0.014729594	-0.22025772	-0.032612413	-0.11801165	-0.62375269	0.2779562	-0.0086120153	-0.041789887	0.37407313	-0.17484074	-0.25150513	0.35397559	0.12702166	-0.049123145	0.3566475	-0.055347706	-0.18385772	0.32295389	0.009532911	-0.16368296	0.73998689	-0.25446568	-0.27326073	0.74078146	0.11733719	-0.13807013	0.84182824	-0.16572384	-0.18887622	0.84005544	0.057257761	-0.3560271	0.85135681	-0.10510121	-0.25040044	1.3076634	-0.23867533	-0.30912204	1.3045525	0.082974641	-0.35601853	1.3258074	-0.096774759	-0.37602381	0.99404488	-0.28476789	-0.31129466	0.9474538	0.1599854	-0.31268441	0.77413399	-0.36230643	-0.079785151	0.90219051	0.238283
201	0.8	-0.018707932	-0.03336726	-0.11736024	-0.56745252	0.11009844	0.058040503	-0.14840191	-0.0056277565	-0.15463223	-0.58281745	0.25540265	0.053249364	-0.14358092	0.016691419	-0.068473775	-0.53790574	0.2211243	-0.014102115	-0.22033765	-0.032386053	-0.11779358	-0.60913667	0.28129081	-0.0086771134	-0.037403842	0.37200963	-0.17509653	-0.23630921	0.35337977	0.12844695	-0.042757725	0.35453402	-0.055559659	-0.17017735	0.32308209	0.0098917552	-0.16006437	0.73769876	-0.25477046	-0.26694264	0.7384337	0.11727078	-0.13349407	0.84044138	-0.16710254	-0.18410165	0.83800192	0.056766211	-0.35170469	0.84879934	-0.10374083	-0.24273625	1.3059979	-0.23872152	-0.3020026	1.3031154	0.08240947	-0.34874422	1.3245992	-0.096997408	-0.36760479	0.99203004	-0.28626319	-0.30699635	0.94634826	0.16032792	-0.30346924	0.7729511	-0.36542199	-0.077459078	0.90026528	0.24319762
